<svg xmlns="http://www.w3.org/2000/svg" width="20" height="18" viewBox="0 0 20 18">
    <g fill="none" fill-rule="evenodd">
        <g fill="#A3A3A3" fill-rule="nonzero">
            <g>
                <g transform="translate(-833.000000, -372.000000) translate(833.000000, 372.000000) translate(0.624088, 3.439844)">
                    <circle cx="9.376" cy="5.56" r="2"/>
                    <path d="M9.363 9.219c2.686 0 5.074-1.207 7.2-3.676C14.52 3.028 12.136 1.8 9.363 1.8c-2.773 0-5.124 1.227-7.105 3.743 2.064 2.47 4.418 3.676 7.105 3.676zM.388 5.036C2.775 1.703 5.788 0 9.363 0c3.57 0 6.615 1.699 9.076 5.025l.409.553-.427.54c-2.56 3.244-5.596 4.9-9.058 4.9-3.466 0-6.47-1.66-8.958-4.91L0 5.577l.388-.542z"/>
                </g>
            </g>
        </g>
    </g>
</svg>
